<svg xmlns="http://www.w3.org/2000/svg" width="92" height="27" fill="none"><path fill="#121212" d="M14.21 26.385c-1.89 0-3.64-.315-5.25-.945a13.313 13.313 0 0 1-4.2-2.73 12.897 12.897 0 0 1-2.8-4.06c-.653-1.563-.98-3.255-.98-5.075 0-1.843.338-3.535 1.015-5.075A12.33 12.33 0 0 1 4.9 4.44a13.047 13.047 0 0 1 4.305-2.695c1.657-.653 3.418-.98 5.285-.98 2.217 0 4.223.397 6.02 1.19 1.797.77 3.255 1.843 4.375 3.22l-4.2 4.2c-.84-1.003-1.762-1.75-2.765-2.24-1.003-.513-2.17-.77-3.5-.77-1.353 0-2.567.303-3.64.91-1.05.583-1.89 1.412-2.52 2.485-.63 1.073-.945 2.333-.945 3.78 0 1.447.292 2.718.875 3.815.607 1.097 1.423 1.948 2.45 2.555 1.05.607 2.252.91 3.605.91 1.353 0 2.497-.257 3.43-.77a5.037 5.037 0 0 0 2.17-2.24c.513-.98.77-2.147.77-3.5l4.235 2.73-11.305-.28v-5.11h13.37v.945c0 2.963-.537 5.472-1.61 7.525s-2.567 3.617-4.48 4.69c-1.89 1.05-4.095 1.575-6.615 1.575Zm23.905 0c-1.913 0-3.605-.373-5.075-1.12-1.47-.77-2.624-1.832-3.464-3.185-.84-1.353-1.26-2.905-1.26-4.655 0-1.727.408-3.255 1.225-4.585a8.723 8.723 0 0 1 3.324-3.185c1.424-.793 3.022-1.19 4.795-1.19 1.727 0 3.256.373 4.586 1.12a7.764 7.764 0 0 1 3.15 3.045c.77 1.283 1.154 2.753 1.154 4.41 0 .35-.023.712-.07 1.085-.023.35-.093.758-.21 1.225l-15.085.07V15.5l12.67-.105-2.73 1.715c-.023-.957-.163-1.738-.42-2.345-.256-.63-.63-1.108-1.12-1.435-.49-.327-1.108-.49-1.855-.49-.77 0-1.434.187-1.994.56-.56.373-.992.898-1.295 1.575-.304.677-.456 1.493-.456 2.45 0 .98.164 1.82.49 2.52.327.677.794 1.19 1.4 1.54.607.35 1.354.525 2.24.525.84 0 1.575-.14 2.206-.42a4.888 4.888 0 0 0 1.75-1.295l3.184 3.185a8.043 8.043 0 0 1-3.08 2.17c-1.19.49-2.543.735-4.06.735ZM50.855 26V1.815h6.09V26h-6.09Zm-3.78-12.04V8.885h13.65v5.075h-13.65ZM69.289 26V8.885h6.125V26H69.29Zm3.045-19.11c-.91 0-1.668-.303-2.275-.91-.607-.63-.91-1.412-.91-2.345 0-.91.303-1.68.91-2.31.607-.63 1.365-.945 2.275-.945.957 0 1.727.315 2.31.945.607.63.91 1.4.91 2.31 0 .933-.303 1.715-.91 2.345-.583.607-1.353.91-2.31.91ZM81.308 26V1.815h6.09V26h-6.09Zm-3.78-12.04V8.885h13.65v5.075h-13.65Z"/></svg>